<svg xmlns="http://www.w3.org/2000/svg" xmlns:xlink="http://www.w3.org/1999/xlink" version="1.1" x="0px" y="0px" viewBox="0 0 512 640" enable-background="new 0 0 512 512" xml:space="preserve"><g><path d="M158.7,388.2l14.6-14.6l-34.7-34.7l-14.6,14.6c-2.3-1.1-4.7-2.1-7.2-3v-20.7H67.6v20.7c-2.4,0.9-4.8,1.8-7.2,3l-14.6-14.6   l-34.8,34.7l14.6,14.6c-1.1,2.3-2.1,4.7-3,7.2H2.1v49.1h20.7c0.9,2.4,1.9,4.8,3,7.2l-14.6,14.6L45.9,501l14.6-14.6   c2.3,1.1,4.7,2.1,7.2,3V510h49.1v-20.7c2.4-0.9,4.8-1.9,7.2-3l14.6,14.6l34.7-34.8l-14.6-14.6c1.1-2.3,2.1-4.7,3-7.2h20.7v-49.1   h-20.7C160.8,392.9,159.8,390.5,158.7,388.2z M165.9,428.1h-16.7l-1.6,6.1c-1.3,5.2-3.4,10.1-6.1,14.7l-3.2,5.5l11.8,11.8   l-11.6,11.6L126.7,466l-5.5,3.2c-4.6,2.7-9.5,4.8-14.7,6.1l-6.1,1.6v16.7H84v-16.7l-6.1-1.6c-5.2-1.3-10.2-3.4-14.7-6.1l-5.5-3.2   l-11.8,11.8l-11.6-11.6l11.8-11.8l-3.2-5.5c-2.7-4.6-4.8-9.5-6.1-14.7l-1.6-6.1H18.5v-16.4h16.7l1.6-6.1c1.3-5.2,3.4-10.2,6.1-14.7   l3.2-5.5l-11.8-11.8L45.9,362l11.8,11.8l5.5-3.2c4.6-2.7,9.5-4.8,14.7-6.1l6.1-1.6v-16.7h16.4v16.7l6.2,1.6   c5.2,1.3,10.1,3.4,14.7,6.1l5.5,3.2l11.8-11.8l11.6,11.6l-11.8,11.8l3.2,5.5c2.7,4.6,4.8,9.6,6.1,14.7l1.6,6.2h16.7V428.1z"/><path d="M92.2,379c-22.6,0-41,18.4-41,41s18.4,41,41,41c22.6,0,41-18.4,41-41S114.8,379,92.2,379z M92.2,444.5   c-13.5,0-24.6-11-24.6-24.6c0-13.5,11-24.6,24.6-24.6s24.6,11,24.6,24.6C116.8,433.5,105.7,444.5,92.2,444.5z"/><path d="M509.9,83.9V2H428v32.8H296.1C292.3,16.1,275.8,2,256,2c-22.6,0-41,18.4-41,41c0,19.8,14.1,36.3,32.8,40.1v33.6H92.2v65.5   h-41V83.9H84V2H2.1v81.9h32.8v114.7h57.3v65.5h155.6v24.6H84v41h16.4v-24.6h344v17c-24.4,3.5-44.7,23.2-48.4,47.5   c-2.2,14.3,0.9,28.7,8.7,40.5c10.3,15.7,14.3,26.7,15,42.3h-16.2v57.3h98.3v-57.3h-16.3c0.5-17.2,6.4-27.5,16.6-44.7   c5.2-8.8,7.9-18.8,7.9-29.1c0-16.4-7-32-19.2-42.9c-8.4-7.5-18.9-12.2-29.9-13.8v-33.5H264.2v-24.6h155.6V116.7H264.2V83.1   c16-3.3,28.7-15.9,31.9-31.9H428v32.8H509.9z M18.5,18.4h49.1v49.1H18.5V18.4z M485.3,493.4h-65.5v-24.6h65.5V493.4z M493.5,378.8   c0,7.3-2,14.5-6,21.4c-10.4,17.7-18.1,30.6-18.5,52.3h-8.2v-57.3h16.4v-16.4H428v16.4h16.4v57.3h-8.3c-0.7-18.9-5.7-32.9-17.8-51.3   c-5.6-8.5-7.8-18.8-6.2-29c2.7-17.6,17.6-32,35.4-34c11.9-1.4,23.3,2.2,32.2,10C488.5,355.9,493.5,367.1,493.5,378.8z M403.4,247.7   H108.6V133h294.9V247.7z M256,67.5c-13.5,0-24.6-11-24.6-24.6c0-13.5,11-24.6,24.6-24.6s24.6,11,24.6,24.6   C280.6,56.5,269.5,67.5,256,67.5z M444.4,18.4h49.1v49.1h-49.1V18.4z"/><rect x="215" y="182.2" width="16.4" height="16.4"/><rect x="247.8" y="182.2" width="16.4" height="16.4"/><rect x="280.6" y="182.2" width="16.4" height="16.4"/></g><!-- <text x="0" y="527" fill="#000000" font-size="5px" font-weight="bold" font-family="'Helvetica Neue', Helvetica, Arial-Unicode, Arial, Sans-serif">Created by Icon Fair</text><text x="0" y="532" fill="#000000" font-size="5px" font-weight="bold" font-family="'Helvetica Neue', Helvetica, Arial-Unicode, Arial, Sans-serif">from the Noun Project</text> --></svg>