<svg xmlns="http://www.w3.org/2000/svg" xmlns:xlink="http://www.w3.org/1999/xlink" version="1.1" x="0px" y="0px" viewBox="0 0 24 30" style="enable-background:new 0 0 24 24;" xml:space="preserve"><g><g><path d="M20,22.5H4c-1.378,0-2.5-1.122-2.5-2.5V4c0-1.378,1.122-2.5,2.5-2.5h16c1.378,0,2.5,1.122,2.5,2.5v16    C22.5,21.378,21.378,22.5,20,22.5z M4,2.5C3.173,2.5,2.5,3.173,2.5,4v16c0,0.827,0.673,1.5,1.5,1.5h16c0.827,0,1.5-0.673,1.5-1.5    V4c0-0.827-0.673-1.5-1.5-1.5H4z"/><path d="M7,15.5c-0.276,0-0.5-0.224-0.5-0.5V2c0-0.276,0.224-0.5,0.5-0.5S7.5,1.724,7.5,2v13C7.5,15.276,7.276,15.5,7,15.5z"/><path d="M12,22.5c-0.276,0-0.5-0.224-0.5-0.5V10c0-0.276,0.224-0.5,0.5-0.5s0.5,0.224,0.5,0.5v12C12.5,22.276,12.276,22.5,12,22.5    z"/><path d="M17,10.5c-0.276,0-0.5-0.224-0.5-0.5V2c0-0.276,0.224-0.5,0.5-0.5s0.5,0.224,0.5,0.5v8C17.5,10.276,17.276,10.5,17,10.5z"/><path d="M22,17.5H9c-0.276,0-0.5-0.224-0.5-0.5s0.224-0.5,0.5-0.5h13c0.276,0,0.5,0.224,0.5,0.5S22.276,17.5,22,17.5z"/><path d="M8,12.5H2c-0.276,0-0.5-0.224-0.5-0.5s0.224-0.5,0.5-0.5h6c0.276,0,0.5,0.224,0.5,0.5S8.276,12.5,8,12.5z"/><path d="M10,7.5H2C1.724,7.5,1.5,7.276,1.5,7S1.724,6.5,2,6.5h8c0.276,0,0.5,0.224,0.5,0.5S10.276,7.5,10,7.5z"/></g><path d="M5,17.5H2c-0.276,0-0.5-0.224-0.5-0.5s0.224-0.5,0.5-0.5h3c0.276,0,0.5,0.224,0.5,0.5S5.276,17.5,5,17.5z"/><path d="M7,22.5c-0.276,0-0.5-0.224-0.5-0.5v-3c0-0.276,0.224-0.5,0.5-0.5s0.5,0.224,0.5,0.5v3C7.5,22.276,7.276,22.5,7,22.5z"/><path d="M12,5.5c-0.276,0-0.5-0.224-0.5-0.5V2c0-0.276,0.224-0.5,0.5-0.5s0.5,0.224,0.5,0.5v3C12.5,5.276,12.276,5.5,12,5.5z"/><path d="M22,7.5h-8c-0.276,0-0.5-0.224-0.5-0.5s0.224-0.5,0.5-0.5h8c0.276,0,0.5,0.224,0.5,0.5S22.276,7.5,22,7.5z"/><path d="M22,12.5h-3c-0.276,0-0.5-0.224-0.5-0.5s0.224-0.5,0.5-0.5h3c0.276,0,0.5,0.224,0.5,0.5S22.276,12.5,22,12.5z"/><path d="M17,22.5c-0.276,0-0.5-0.224-0.5-0.5v-8c0-0.276,0.224-0.5,0.5-0.5s0.5,0.224,0.5,0.5v8C17.5,22.276,17.276,22.5,17,22.5z"/><path d="M4,20.5c-0.141,0-0.281-0.059-0.379-0.175c-0.18-0.209-0.156-0.525,0.054-0.705l3.415-2.928l4.454-9.898   c0.067-0.15,0.204-0.257,0.366-0.287c0.163-0.03,0.328,0.022,0.444,0.138L17,11.293l2.646-2.646c0.195-0.195,0.512-0.195,0.707,0   s0.195,0.512,0,0.707l-3,3c-0.195,0.195-0.512,0.195-0.707,0l-4.488-4.488l-4.203,9.339c-0.03,0.067-0.075,0.127-0.131,0.174   l-3.5,3C4.231,20.46,4.115,20.5,4,20.5z"/><path d="M15,12.5h-3c-0.276,0-0.5-0.224-0.5-0.5s0.224-0.5,0.5-0.5h3c0.276,0,0.5,0.224,0.5,0.5S15.276,12.5,15,12.5z"/></g><!-- <text x="0" y="39" fill="#000000" font-size="5px" font-weight="bold" font-family="'Helvetica Neue', Helvetica, Arial-Unicode, Arial, Sans-serif">Created by icon 54</text><text x="0" y="44" fill="#000000" font-size="5px" font-weight="bold" font-family="'Helvetica Neue', Helvetica, Arial-Unicode, Arial, Sans-serif">from the Noun Project</text> --></svg>