<svg xmlns="http://www.w3.org/2000/svg" xmlns:xlink="http://www.w3.org/1999/xlink" version="1.1" x="0px" y="0px" viewBox="0 0 64 80" enable-background="new 0 0 64 64" xml:space="preserve"><g><path fill="#000000" d="M25.173,63.048c-0.678,0-1.337-0.321-1.989-0.963c-0.21-0.206-0.416-0.415-0.623-0.625   c-0.328-0.332-0.655-0.664-0.996-0.982c-1.03-0.964-1.196-2.545-0.388-3.678l0.683-0.954c0.716-0.997,1.456-2.029,2.142-3.056   c0.109-0.164,0.271-0.506,0.45-1.026c-0.737,0.029-1.615-0.247-2.45-1.313c-2.573-3.285-5.797-6.153-8.616-8.583   c-0.813-0.702-1.199-1.537-1.137-2.404c-0.855,0.51-1.686,1.063-2.559,1.644c-0.293,0.195-0.585,0.39-0.879,0.583   c-0.281,0.185-0.554,0.383-0.827,0.58c-0.283,0.204-0.566,0.409-0.856,0.602c-0.843,0.563-1.596,0.565-2.08,0.466   c-0.755-0.153-1.408-0.643-1.94-1.454C2.944,41.636,2.7,41.4,2.383,41.183c-0.975-0.665-1.287-1.424-1.378-1.944   c-0.081-0.469-0.063-1.187,0.487-1.945c2.245-3.092,4.517-6.056,7.631-8.342c2.517-1.849,5.472-3,9.298-3.623   c0.352-0.057,0.706-0.102,1.061-0.146c0.488-0.061,0.949-0.118,1.383-0.211c0.04-0.01,0.177-0.075,0.32-0.203   c0.612-0.549,1.551-0.498,2.1,0.113c0.549,0.611,0.498,1.552-0.113,2.1c-0.295,0.265-0.907,0.735-1.691,0.9   c-0.557,0.118-1.103,0.186-1.63,0.252c-0.318,0.04-0.636,0.079-0.952,0.13c-3.344,0.544-5.891,1.524-8.015,3.084   c-2.677,1.965-4.743,4.617-6.776,7.407c0.62,0.431,1.121,0.935,1.49,1.498c0.01,0.015,0.019,0.03,0.029,0.043   c0.208-0.142,0.412-0.29,0.616-0.438c0.308-0.223,0.617-0.445,0.935-0.654c0.289-0.19,0.578-0.382,0.866-0.574   c1.013-0.674,2.061-1.372,3.154-1.998c0.42-0.241,0.85-0.427,1.277-0.552c0.972-0.285,1.998,0.047,2.617,0.846   c0.598,0.771,0.674,1.806,0.199,2.653c0.012,0.011,0.025,0.023,0.039,0.035c2.926,2.522,6.277,5.506,9.015,9.002   c0.031,0.039,0.058,0.071,0.082,0.098c0.765-0.439,1.708-0.388,2.426,0.137c0.747,0.546,1.083,1.478,0.858,2.373   c-0.253,1.002-0.672,2.373-1.233,3.214c-0.714,1.071-1.469,2.123-2.2,3.141l-0.584,0.815c0.335,0.317,0.66,0.646,0.984,0.975   c0.183,0.185,0.366,0.37,0.551,0.553c1.011-0.76,2.028-1.556,3.012-2.326l0.274-0.214c4.365-3.413,6.748-7.606,7.286-12.817   c0.152-1.465,0.579-3.592,2.528-5.141c0.195-0.154,0.402-0.401,0.621-0.663c0.088-0.105,0.176-0.21,0.266-0.313   c1.254-1.436,2.522-2.861,3.79-4.285c2.834-3.183,5.763-6.474,8.457-9.837c5.061-6.32,7.867-12.875,8.579-20.04   c0.016-0.16,0.017-0.278,0.014-0.363l0,0c-0.062,0-0.142,0.003-0.242,0.015c-3.449,0.377-6.769,1.221-9.868,2.508   c-4.623,1.92-9.172,4.85-13.907,8.958c-1.303,1.13-2.713,2.379-4.311,3.817c-0.611,0.55-1.551,0.5-2.1-0.11   c-0.55-0.61-0.5-1.551,0.11-2.1c1.611-1.451,3.035-2.712,4.352-3.854c4.98-4.32,9.793-7.414,14.716-9.458   c3.36-1.395,6.955-2.31,10.686-2.718c1.163-0.127,2.077,0.129,2.714,0.76c0.652,0.646,0.921,1.602,0.798,2.84   c-0.76,7.647-3.861,14.916-9.217,21.605c-2.742,3.424-5.698,6.745-8.557,9.956c-1.262,1.417-2.523,2.835-3.77,4.263   c-0.077,0.088-0.153,0.178-0.229,0.269c-0.291,0.346-0.62,0.739-1.05,1.08c-0.849,0.674-1.26,1.578-1.419,3.117   c-0.617,5.974-3.448,10.971-8.412,14.854l-0.274,0.214c-1.025,0.802-2.084,1.631-3.148,2.429   C26.324,62.822,25.741,63.048,25.173,63.048z"/><circle fill="#000000" cx="27.455" cy="21.269" r="1.365"/></g><!-- <text x="0" y="84" fill="#000000" font-size="5px" font-weight="bold" font-family="'Helvetica Neue', Helvetica, Arial-Unicode, Arial, Sans-serif">from the Noun Project</text> --></svg>