<svg xmlns="http://www.w3.org/2000/svg" xmlns:xlink="http://www.w3.org/1999/xlink" version="1.1" x="0px" y="0px" viewBox="0 0 100 125" enable-background="new 0 0 100 100" xml:space="preserve"><g><path d="M66.5,44.3c-2.4,0-4.7-1-6.4-2.8c-3.2-3.5-3-9,0.5-12.2c1.6-1.5,3.7-2.3,5.9-2.3c2.4,0,4.7,1,6.4,2.8c3.2,3.5,3,9-0.5,12.2   C70.7,43.5,68.6,44.3,66.5,44.3z M66.5,29.9c-1.5,0-2.9,0.5-3.9,1.5c-1.1,1-1.8,2.5-1.9,4c-0.1,1.5,0.5,3,1.5,4.2   c1.1,1.2,2.6,1.9,4.3,1.9c1.5,0,2.9-0.5,3.9-1.5c2.3-2.2,2.5-5.8,0.3-8.2C69.6,30.5,68.1,29.9,66.5,29.9z"/></g><g><path d="M58.2,80.4l-9.6-10.4c-2.2,1.6-4.8,2.5-7.5,2.5c-3.5,0-6.9-1.5-9.3-4.1c-2.3-2.5-3.5-5.7-3.3-9.1c0.1-2.9,1.2-5.6,3.1-7.8   L21.9,41l1-1c5.5-5,12.8-7.6,20.2-7c14.2-14.2,25.7-17.1,39.5-17.1c1.4,0,2.8,0,4.4,0.1l1.4,0.1l-0.1,1.4   c-0.7,16.4-4.2,28.6-20.5,42.4c0,7.4-3.2,14.5-8.6,19.5L58.2,80.4z M48.8,66l9.5,10.3c4.4-4.6,6.8-10.7,6.7-17.1l0-0.7l0.5-0.4   c15.5-13,19.1-24,19.9-39.4c-1,0-1.9,0-2.8,0c-13.2,0-24.2,2.8-38,16.8L44.2,36l-0.7-0.1c-0.8-0.1-1.6-0.1-2.4-0.1   c-5.6,0-10.9,1.9-15.2,5.4l9.5,10.3l-1,1c-4,3.7-4.2,9.9-0.6,13.9c1.9,2,4.5,3.2,7.2,3.2c2.5,0,4.8-0.9,6.7-2.6L48.8,66z"/></g><g><path d="M10.7,88.3l0.7-2.4c0.1-0.4,3.1-10.4,6.9-14.2c2.1-2.1,4.8-3.4,7.2-3.4c1.5,0,2.8,0.5,3.8,1.5c2.5,2.5,1.7,7.4-1.9,11   c-4.1,4.1-13.8,6.8-14.2,6.9L10.7,88.3z M25.4,71.1c-1.6,0-3.6,1-5.2,2.5c-2.1,2.1-4.1,7-5.3,10.4c3-1,8-3,10.4-5.3   c2.4-2.4,3.2-5.6,1.9-6.9C26.7,71.3,25.9,71.1,25.4,71.1z"/></g><text x="0" y="115" fill="#000000" font-size="5px" font-weight="bold" font-family="'Helvetica Neue', Helvetica, Arial-Unicode, Arial, Sans-serif">Created by Martha Ormiston</text><text x="0" y="120" fill="#000000" font-size="5px" font-weight="bold" font-family="'Helvetica Neue', Helvetica, Arial-Unicode, Arial, Sans-serif">from the Noun Project</text></svg>