<svg xmlns="http://www.w3.org/2000/svg" xmlns:xlink="http://www.w3.org/1999/xlink" version="1.1" x="0px" y="0px" viewBox="0 0 100 125" enable-background="new 0 0 100 100" xml:space="preserve"><g><g><path d="M50,44.736c-15.715,0-28.892-3.722-30.651-8.657c-0.019-0.054-0.029-0.111-0.029-0.168V14.692    c0-0.196,0.115-0.374,0.293-0.455c0.179-0.081,0.389-0.05,0.536,0.079c4.439,3.882,16.436,6.491,29.851,6.491    s25.411-2.608,29.851-6.491c0.147-0.129,0.357-0.16,0.536-0.079c0.179,0.081,0.293,0.259,0.293,0.455v21.219    c0,0.057-0.01,0.114-0.029,0.168C78.892,41.015,65.715,44.736,50,44.736z M20.32,35.821c1.72,4.445,14.706,7.915,29.68,7.915    s27.96-3.47,29.68-7.915v-20.1c-5.133,3.667-16.79,6.085-29.68,6.085s-24.547-2.418-29.68-6.085V35.821z"/></g><g><path d="M50,70.118c-15.715,0-28.892-3.722-30.651-8.657c-0.019-0.054-0.029-0.111-0.029-0.168V40.074    c0-0.196,0.115-0.374,0.293-0.455s0.389-0.05,0.536,0.079C24.589,43.58,36.585,46.188,50,46.188s25.411-2.608,29.851-6.491    c0.147-0.129,0.357-0.161,0.536-0.079c0.179,0.081,0.293,0.259,0.293,0.455v21.219c0,0.057-0.01,0.114-0.029,0.168    C78.892,66.396,65.715,70.118,50,70.118z M20.32,61.203c1.72,4.445,14.706,7.915,29.68,7.915s27.96-3.47,29.68-7.915v-20.1    C74.547,44.77,62.89,47.188,50,47.188s-24.547-2.418-29.68-6.085V61.203z"/></g><g><path d="M50,95.5c-15.715,0-28.892-3.722-30.651-8.657c-0.019-0.054-0.029-0.111-0.029-0.168V65.456    c0-0.196,0.115-0.374,0.293-0.455c0.179-0.081,0.389-0.05,0.536,0.079c4.439,3.882,16.436,6.49,29.851,6.49    s25.411-2.608,29.851-6.49c0.147-0.129,0.357-0.161,0.536-0.079c0.179,0.081,0.293,0.259,0.293,0.455v21.219    c0,0.057-0.01,0.114-0.029,0.168C78.892,91.778,65.715,95.5,50,95.5z M20.32,86.585C22.04,91.03,35.026,94.5,50,94.5    s27.96-3.47,29.68-7.915v-20.1c-5.132,3.667-16.79,6.084-29.68,6.084s-24.547-2.417-29.68-6.084V86.585z"/></g><g><path d="M80.18,14.866c-0.276,0-0.5-0.224-0.5-0.5C79.68,9.56,66.088,5.5,50,5.5c-13.02,0-24.741,2.653-28.505,6.453    c-0.787,0.794-1.182,1.604-1.174,2.409c0.002,0.276-0.219,0.502-0.495,0.505c-0.002,0-0.003,0-0.005,0    c-0.274,0-0.498-0.221-0.5-0.495c-0.01-1.081,0.482-2.131,1.464-3.122C24.783,7.212,36.524,4.5,50,4.5    c17.204,0,30.68,4.334,30.68,9.866C80.68,14.643,80.456,14.866,80.18,14.866z"/></g><g><path d="M23.758,35.187c-0.276,0-0.5-0.224-0.5-0.5V22.379c0-0.276,0.224-0.5,0.5-0.5s0.5,0.224,0.5,0.5v12.308    C24.258,34.963,24.034,35.187,23.758,35.187z"/></g><g><path d="M23.758,60.454c-0.276,0-0.5-0.224-0.5-0.5V47.646c0-0.276,0.224-0.5,0.5-0.5s0.5,0.224,0.5,0.5v12.308    C24.258,60.23,24.034,60.454,23.758,60.454z"/></g><g><path d="M23.758,85.721c-0.276,0-0.5-0.224-0.5-0.5V72.913c0-0.276,0.224-0.5,0.5-0.5s0.5,0.224,0.5,0.5v12.308    C24.258,85.497,24.034,85.721,23.758,85.721z"/></g></g><text x="0" y="115" fill="#000000" font-size="5px" font-weight="bold" font-family="'Helvetica Neue', Helvetica, Arial-Unicode, Arial, Sans-serif">Created by Grant Fisher</text><text x="0" y="120" fill="#000000" font-size="5px" font-weight="bold" font-family="'Helvetica Neue', Helvetica, Arial-Unicode, Arial, Sans-serif">from the Noun Project</text></svg>