<svg xmlns:dc="http://purl.org/dc/elements/1.1/" xmlns:cc="http://creativecommons.org/ns#" xmlns:rdf="http://www.w3.org/1999/02/22-rdf-syntax-ns#" xmlns:svg="http://www.w3.org/2000/svg" xmlns="http://www.w3.org/2000/svg" xmlns:sodipodi="http://sodipodi.sourceforge.net/DTD/sodipodi-0.dtd" xmlns:inkscape="http://www.inkscape.org/namespaces/inkscape" version="1.1" x="0px" y="0px" viewBox="0 0 100 125"><g transform="translate(0,-952.36218)"><path style="text-indent:0;text-transform:none;direction:ltr;block-progression:tb;baseline-shift:baseline;color:#000000;enable-background:accumulate;" d="M 12 14 C 9.2830763 14 7 16.07544 7 18.71875 L 7 67.25 C 7 69.8933 9.2830763 72 12 72 L 41 72 L 41 84 L 36 84 A 1.0001 1.0001 0 0 0 35.8125 84 A 1.0043849 1.0043849 0 0 0 36 86 L 64 86 A 1.0001 1.0001 0 1 0 64 84 L 59 84 L 59 72 L 88 72 C 90.716924 72 93 69.8933 93 67.25 L 93 18.71875 C 93 16.07544 90.716924 14 88 14 L 12 14 z M 12 16 L 88 16 C 89.715078 16 91 17.22552 91 18.71875 L 91 67.25 C 91 68.7432 89.715078 70 88 70 L 12 70 C 10.284922 70 9 68.7432 9 67.25 L 9 18.71875 C 9 17.22552 10.284922 16 12 16 z M 75.96875 21.96875 A 1.0001 1.0001 0 0 0 75.875 22 L 67 22 A 1.0001 1.0001 0 0 0 66.8125 22 A 1.0043849 1.0043849 0 0 0 67 24 L 73.5625 24 L 57.71875 39.84375 L 40.65625 34.15625 A 1.0001 1.0001 0 0 0 40.53125 34.09375 L 40.46875 34.0625 A 1.0001 1.0001 0 0 0 40.03125 33.96875 A 1.0001 1.0001 0 0 0 40 33.96875 A 1.0001 1.0001 0 0 0 39.9375 33.96875 A 1.0001 1.0001 0 0 0 39.0625 34.4375 L 21.375 48.1875 A 1.0127166 1.0127166 0 0 0 22.625 49.78125 L 40.1875 36.125 L 57.53125 41.875 A 1.0054782 1.0054782 0 0 0 57.65625 41.9375 L 57.6875 41.9375 A 1.0054782 1.0054782 0 0 0 57.75 41.96875 A 1.0030471 1.0030471 0 0 0 57.78125 41.96875 A 1.0054782 1.0054782 0 0 0 57.84375 42 A 1.0030471 1.0030471 0 0 0 57.875 42 A 1.0054782 1.0054782 0 0 0 57.96875 42 A 1.0030471 1.0030471 0 0 0 58.25 41.96875 A 1.0054782 1.0054782 0 0 0 58.4375 41.90625 A 1.0030471 1.0030471 0 0 0 58.46875 41.875 A 1.0054782 1.0054782 0 0 0 58.625 41.78125 A 1.0030471 1.0030471 0 0 0 58.6875 41.71875 A 1.0054782 1.0054782 0 0 0 58.71875 41.6875 L 58.78125 41.625 A 1.0030471 1.0030471 0 0 0 58.84375 41.5625 L 75 25.40625 L 75 32 A 1.0001 1.0001 0 1 0 77 32 L 77 23.1875 A 1.0001 1.0001 0 0 0 76.96875 22.71875 A 1.0001 1.0001 0 0 0 76.96875 22.6875 A 1.0001 1.0001 0 0 0 75.96875 21.96875 z M 69.78125 36 A 1.0001 1.0001 0 0 0 69.28125 36.28125 L 61.28125 44.28125 A 1.0001 1.0001 0 0 0 61 45 L 61 63 A 1.0001 1.0001 0 0 0 62 64 L 70 64 A 1.0001 1.0001 0 0 0 71 63 L 71 37 A 1.0001 1.0001 0 0 0 69.78125 36 z M 69 39.40625 L 69 62 L 63 62 L 63 45.40625 L 69 39.40625 z M 37.78125 43 A 1.0001 1.0001 0 0 0 37.40625 43.1875 L 29.40625 49.1875 A 1.0001 1.0001 0 0 0 29 50 L 29 63 A 1.0001 1.0001 0 0 0 30 64 L 38 64 A 1.0001 1.0001 0 0 0 39 63 L 39 44 A 1.0001 1.0001 0 0 0 37.78125 43 z M 45.84375 43 A 1.0001 1.0001 0 0 0 45 44 L 45 63 A 1.0001 1.0001 0 0 0 46 64 L 54 64 A 1.0001 1.0001 0 0 0 55 63 L 55 46 A 1.0001 1.0001 0 0 0 54.25 45.03125 L 46.25 43.03125 A 1.0001 1.0001 0 0 0 45.84375 43 z M 47 45.28125 L 53 46.78125 L 53 62 L 47 62 L 47 45.28125 z M 37 45.96875 L 37 62 L 31 62 L 31 50.46875 L 37 45.96875 z M 43 72 L 57 72 L 57 84 L 43 84 L 43 72 z " transform="translate(0,952.36218)" fill="#000000" fill-opacity="1" stroke="none" marker="none" visibility="visible" display="inline" overflow="visible"/></g><text x="0" y="115" fill="#000000" font-size="5px" font-weight="bold" font-family="'Helvetica Neue', Helvetica, Arial-Unicode, Arial, Sans-serif">Created by iconsphere</text><text x="0" y="120" fill="#000000" font-size="5px" font-weight="bold" font-family="'Helvetica Neue', Helvetica, Arial-Unicode, Arial, Sans-serif">from the Noun Project</text></svg>