<svg xmlns="http://www.w3.org/2000/svg" xmlns:xlink="http://www.w3.org/1999/xlink" version="1.1" x="0px" y="0px" viewBox="0 0 500 625" style="enable-background:new 0 0 500 500;" xml:space="preserve"><style type="text/css">
	.st0{fill:none;stroke:#000000;stroke-width:9;stroke-linecap:round;stroke-linejoin:round;stroke-miterlimit:10;}
</style><line class="st0" x1="240.8" y1="192.3" x2="326.1" y2="192.3"/><line class="st0" x1="240.8" y1="239.9" x2="326.1" y2="239.9"/><line class="st0" x1="240.8" y1="284" x2="326.1" y2="284"/><line class="st0" x1="240.8" y1="327.6" x2="326.1" y2="327.6"/><polyline class="st0" points="177.6,196.2 186.5,205.2 212.2,179.5 "/><polyline class="st0" points="177.6,243.8 186.5,252.7 212.2,227.1 "/><polyline class="st0" points="177.6,287.5 186.5,296.4 212.2,270.8 "/><polyline class="st0" points="177.6,331.5 186.5,340.4 212.2,314.8 "/><circle cx="248" cy="116.5" r="7.8"/><path d="M375.2,117H315v-13.7c0-9-7.3-16.3-16.3-16.3h-32.4c2-3.3,3.2-7.2,3.2-11.3c0-11.9-9.7-21.6-21.6-21.6s-21.6,9.7-21.6,21.6  c0,4.2,1.2,8,3.2,11.3h-32.6c-8.9,0-16.1,7.2-16.1,16.1V117h-57.2c-2.7,0-4.8,2.2-4.8,4.8v260.2c0,2.7,2.2,4.9,4.9,4.9H376  c2.2,0,4-1.8,4-4V121.8C380,119.2,377.8,117,375.2,117z M248,65.1c5.8,0,10.6,4.7,10.6,10.6s-4.7,10.6-10.6,10.6  s-10.6-4.7-10.6-10.6S242.2,65.1,248,65.1z M193,106c0-4.4,3.6-8,8-8h94c4.4,0,8,3.6,8,8v31H193V106z M371,378H128V126h53v21h134  v-21h56V378z"/><text x="0" y="515" fill="#000000" font-size="5px" font-weight="bold" font-family="'Helvetica Neue', Helvetica, Arial-Unicode, Arial, Sans-serif">Created by Robert Salazar</text><text x="0" y="520" fill="#000000" font-size="5px" font-weight="bold" font-family="'Helvetica Neue', Helvetica, Arial-Unicode, Arial, Sans-serif">from the Noun Project</text></svg>